<svg width="670" height="131" viewBox="0 0 670 131" fill="none" xmlns="http://www.w3.org/2000/svg">
<path d="M0 66V120H54H108V66V12H54H0V66ZM91.1834 38.7197V48.9965H63.9031H36.6228V59.3201V69.6436H26.346H16.0692V49.0433V28.4429H53.6263H91.1834V38.7197ZM91.1834 82.9567V103.557H53.6263H16.0692V93.2803V83.0035H43.3495H70.6298V72.6799V62.3564H80.9066H91.1834V82.9567Z" fill="white"/>
<path d="M142.12 106V23.68H187.24C193.32 23.68 198.36 24.76 202.36 26.92C206.44 29.08 209.48 32.12 211.48 36.04C213.48 39.88 214.48 44.32 214.48 49.36C214.48 54.72 213.28 59.48 210.88 63.64C208.48 67.72 205 70.84 200.44 73L217.24 106H197.44L182.92 76H160V106H142.12ZM160 61.84H184.84C188.44 61.84 191.24 60.76 193.24 58.6C195.24 56.36 196.24 53.36 196.24 49.6C196.24 47.2 195.8 45.16 194.92 43.48C194.04 41.72 192.76 40.4 191.08 39.52C189.4 38.64 187.32 38.2 184.84 38.2H160V61.84ZM255.61 107.44C248.65 107.44 242.81 106.28 238.09 103.96C233.37 101.56 229.81 97.92 227.41 93.04C225.01 88.16 223.81 81.96 223.81 74.44C223.81 66.84 225.01 60.64 227.41 55.84C229.81 50.96 233.33 47.36 237.97 45.04C242.69 42.64 248.45 41.44 255.25 41.44C261.65 41.44 267.05 42.6 271.45 44.92C275.85 47.16 279.17 50.68 281.41 55.48C283.65 60.2 284.77 66.32 284.77 73.84V78.16H240.73C240.89 81.84 241.45 84.96 242.41 87.52C243.45 90.08 245.01 92 247.09 93.28C249.25 94.48 252.09 95.08 255.61 95.08C257.53 95.08 259.25 94.84 260.77 94.36C262.37 93.88 263.73 93.16 264.85 92.2C265.97 91.24 266.85 90.04 267.49 88.6C268.13 87.16 268.45 85.52 268.45 83.68H284.77C284.77 87.68 284.05 91.16 282.61 94.12C281.17 97.08 279.17 99.56 276.61 101.56C274.05 103.48 270.97 104.96 267.37 106C263.85 106.96 259.93 107.44 255.61 107.44ZM240.97 67.6H267.61C267.61 65.2 267.29 63.12 266.65 61.36C266.09 59.6 265.29 58.16 264.25 57.04C263.21 55.92 261.93 55.12 260.41 54.64C258.97 54.08 257.33 53.8 255.49 53.8C252.45 53.8 249.89 54.32 247.81 55.36C245.81 56.32 244.25 57.84 243.13 59.92C242.09 61.92 241.37 64.48 240.97 67.6ZM297.008 106V42.88H310.808L312.128 51.52H312.968C314.408 49.44 316.128 47.64 318.128 46.12C320.208 44.6 322.528 43.44 325.088 42.64C327.648 41.84 330.448 41.44 333.488 41.44C337.648 41.44 341.288 42.2 344.408 43.72C347.528 45.24 349.928 47.64 351.608 50.92C353.368 54.2 354.248 58.48 354.248 63.76V106H337.568V66.4C337.568 64.4 337.328 62.72 336.848 61.36C336.368 59.92 335.648 58.76 334.688 57.88C333.808 56.92 332.688 56.24 331.328 55.84C329.968 55.44 328.448 55.24 326.768 55.24C324.288 55.24 322.048 55.84 320.048 57.04C318.048 58.24 316.488 59.88 315.368 61.96C314.248 64.04 313.688 66.44 313.688 69.16V106H297.008ZM391.516 107.44C386.316 107.44 381.796 106.28 377.956 103.96C374.196 101.56 371.276 97.92 369.196 93.04C367.116 88.16 366.076 81.92 366.076 74.32C366.076 66.72 367.116 60.52 369.196 55.72C371.356 50.84 374.276 47.24 377.956 44.92C381.716 42.6 386.036 41.44 390.916 41.44C393.636 41.44 396.156 41.76 398.476 42.4C400.876 42.96 402.956 43.88 404.716 45.16C406.556 46.44 408.116 48 409.396 49.84H410.116V19.24H426.796V106H413.116L411.796 97.48H410.956C408.876 100.84 406.156 103.36 402.796 105.04C399.436 106.64 395.676 107.44 391.516 107.44ZM396.796 93.76C399.916 93.76 402.436 93.04 404.356 91.6C406.356 90.16 407.836 88.08 408.796 85.36C409.756 82.64 410.236 79.4 410.236 75.64V73.48C410.236 70.68 409.956 68.12 409.396 65.8C408.916 63.48 408.116 61.56 406.996 60.04C405.876 58.44 404.476 57.24 402.796 56.44C401.116 55.56 399.116 55.12 396.796 55.12C393.436 55.12 390.756 55.8 388.756 57.16C386.756 58.44 385.316 60.44 384.436 63.16C383.556 65.8 383.116 69.12 383.116 73.12V75.88C383.116 79.88 383.556 83.2 384.436 85.84C385.316 88.48 386.756 90.48 388.756 91.84C390.756 93.12 393.436 93.76 396.796 93.76ZM442.203 106V19.24H458.883V106H442.203ZM502.876 107.44C495.916 107.44 490.076 106.28 485.356 103.96C480.636 101.56 477.076 97.92 474.676 93.04C472.276 88.16 471.076 81.96 471.076 74.44C471.076 66.84 472.276 60.64 474.676 55.84C477.076 50.96 480.596 47.36 485.236 45.04C489.956 42.64 495.716 41.44 502.516 41.44C508.916 41.44 514.316 42.6 518.716 44.92C523.116 47.16 526.436 50.68 528.676 55.48C530.916 60.2 532.036 66.32 532.036 73.84V78.16H487.996C488.156 81.84 488.716 84.96 489.676 87.52C490.716 90.08 492.276 92 494.356 93.28C496.516 94.48 499.356 95.08 502.876 95.08C504.796 95.08 506.516 94.84 508.036 94.36C509.636 93.88 510.996 93.16 512.116 92.2C513.236 91.24 514.116 90.04 514.756 88.6C515.396 87.16 515.716 85.52 515.716 83.68H532.036C532.036 87.68 531.316 91.16 529.876 94.12C528.436 97.08 526.436 99.56 523.876 101.56C521.316 103.48 518.236 104.96 514.636 106C511.116 106.96 507.196 107.44 502.876 107.44ZM488.236 67.6H514.876C514.876 65.2 514.556 63.12 513.916 61.36C513.356 59.6 512.556 58.16 511.516 57.04C510.476 55.92 509.196 55.12 507.676 54.64C506.236 54.08 504.596 53.8 502.756 53.8C499.716 53.8 497.156 54.32 495.076 55.36C493.076 56.32 491.516 57.84 490.396 59.92C489.356 61.92 488.636 64.48 488.236 67.6ZM569.834 107.44C565.434 107.44 561.474 106.96 557.954 106C554.434 105.04 551.434 103.72 548.954 102.04C546.474 100.28 544.554 98.2 543.194 95.8C541.914 93.4 541.274 90.68 541.274 87.64C541.274 87.32 541.274 87 541.274 86.68C541.274 86.36 541.314 86.12 541.394 85.96H557.474C557.474 86.12 557.474 86.28 557.474 86.44C557.474 86.6 557.474 86.76 557.474 86.92C557.554 88.92 558.194 90.56 559.394 91.84C560.594 93.04 562.154 93.92 564.074 94.48C566.074 95.04 568.154 95.32 570.314 95.32C572.234 95.32 574.074 95.16 575.834 94.84C577.674 94.44 579.194 93.76 580.394 92.8C581.674 91.84 582.314 90.6 582.314 89.08C582.314 87.16 581.514 85.68 579.914 84.64C578.394 83.6 576.354 82.76 573.794 82.12C571.314 81.48 568.594 80.76 565.634 79.96C562.914 79.32 560.194 78.6 557.474 77.8C554.754 76.92 552.274 75.8 550.034 74.44C547.874 73.08 546.114 71.32 544.754 69.16C543.394 66.92 542.714 64.12 542.714 60.76C542.714 57.48 543.434 54.64 544.874 52.24C546.314 49.76 548.274 47.72 550.754 46.12C553.314 44.52 556.274 43.36 559.634 42.64C563.074 41.84 566.754 41.44 570.674 41.44C574.354 41.44 577.794 41.84 580.994 42.64C584.194 43.36 586.994 44.48 589.394 46C591.794 47.44 593.674 49.28 595.034 51.52C596.394 53.68 597.074 56.12 597.074 58.84C597.074 59.4 597.074 59.92 597.074 60.4C597.074 60.88 597.034 61.2 596.954 61.36H580.994V60.4C580.994 58.96 580.554 57.76 579.674 56.8C578.794 55.76 577.514 54.96 575.834 54.4C574.234 53.84 572.274 53.56 569.954 53.56C568.354 53.56 566.874 53.68 565.514 53.92C564.234 54.16 563.114 54.52 562.154 55C561.194 55.48 560.434 56.08 559.874 56.8C559.394 57.44 559.154 58.24 559.154 59.2C559.154 60.56 559.714 61.68 560.834 62.56C562.034 63.36 563.594 64.04 565.514 64.6C567.434 65.16 569.554 65.76 571.874 66.4C574.754 67.2 577.754 68 580.874 68.8C584.074 69.52 587.034 70.52 589.754 71.8C592.474 73.08 594.674 74.92 596.354 77.32C598.034 79.64 598.874 82.8 598.874 86.8C598.874 90.64 598.114 93.88 596.594 96.52C595.154 99.16 593.114 101.28 590.474 102.88C587.834 104.48 584.754 105.64 581.234 106.36C577.714 107.08 573.914 107.44 569.834 107.44ZM636.513 107.44C632.113 107.44 628.153 106.96 624.633 106C621.113 105.04 618.113 103.72 615.633 102.04C613.153 100.28 611.233 98.2 609.873 95.8C608.593 93.4 607.953 90.68 607.953 87.64C607.953 87.32 607.953 87 607.953 86.68C607.953 86.36 607.993 86.12 608.073 85.96H624.153C624.153 86.12 624.153 86.28 624.153 86.44C624.153 86.6 624.153 86.76 624.153 86.92C624.233 88.92 624.873 90.56 626.073 91.84C627.273 93.04 628.833 93.92 630.753 94.48C632.753 95.04 634.833 95.32 636.993 95.32C638.913 95.32 640.753 95.16 642.513 94.84C644.353 94.44 645.873 93.76 647.073 92.8C648.353 91.84 648.993 90.6 648.993 89.08C648.993 87.16 648.193 85.68 646.593 84.64C645.073 83.6 643.033 82.76 640.473 82.12C637.993 81.48 635.273 80.76 632.313 79.96C629.593 79.32 626.873 78.6 624.153 77.8C621.433 76.92 618.953 75.8 616.713 74.44C614.553 73.08 612.793 71.32 611.433 69.16C610.073 66.92 609.393 64.12 609.393 60.76C609.393 57.48 610.113 54.64 611.553 52.24C612.993 49.76 614.953 47.72 617.433 46.12C619.993 44.52 622.953 43.36 626.313 42.64C629.753 41.84 633.433 41.44 637.353 41.44C641.033 41.44 644.473 41.84 647.673 42.64C650.873 43.36 653.673 44.48 656.073 46C658.473 47.44 660.353 49.28 661.713 51.52C663.073 53.68 663.753 56.12 663.753 58.84C663.753 59.4 663.753 59.92 663.753 60.4C663.753 60.88 663.713 61.2 663.633 61.36H647.673V60.4C647.673 58.96 647.233 57.76 646.353 56.8C645.473 55.76 644.193 54.96 642.513 54.4C640.913 53.84 638.953 53.56 636.633 53.56C635.033 53.56 633.553 53.68 632.193 53.92C630.913 54.16 629.793 54.52 628.833 55C627.873 55.48 627.113 56.08 626.553 56.8C626.073 57.44 625.833 58.24 625.833 59.2C625.833 60.56 626.393 61.68 627.513 62.56C628.713 63.36 630.273 64.04 632.193 64.6C634.113 65.16 636.233 65.76 638.553 66.4C641.433 67.2 644.433 68 647.553 68.8C650.753 69.52 653.713 70.52 656.433 71.8C659.153 73.08 661.353 74.92 663.033 77.32C664.713 79.64 665.553 82.8 665.553 86.8C665.553 90.64 664.793 93.88 663.273 96.52C661.833 99.16 659.793 101.28 657.153 102.88C654.513 104.48 651.433 105.64 647.913 106.36C644.393 107.08 640.593 107.44 636.513 107.44Z" fill="white"/>
</svg>
